<svg width="24" height="15" viewBox="0 0 24 15" fill="none" xmlns="http://www.w3.org/2000/svg">
<path d="M22.7109 1.76953H0.878906C0.386719 1.76953 0 1.38281 0 0.878906C0 0.386719 0.386719 0 0.878906 0H22.7109C23.2031 0 23.6133 0.386719 23.6133 0.878906C23.6133 1.38281 23.2031 1.76953 22.7109 1.76953Z" fill="white"/>
<path d="M22.7109 7.91016H0.878906C0.386719 7.91016 0 7.52344 0 7.01953C0 6.52734 0.386719 6.14062 0.878906 6.14062H22.7109C23.2031 6.14062 23.6133 6.52734 23.6133 7.01953C23.6133 7.52344 23.2031 7.91016 22.7109 7.91016Z" fill="white"/>
<path d="M22.7109 14.0508H0.878906C0.386719 14.0508 0 13.6523 0 13.1602C0 12.668 0.386719 12.2812 0.878906 12.2812H22.7109C23.2031 12.2812 23.6133 12.668 23.6133 13.1602C23.6133 13.6523 23.2031 14.0508 22.7109 14.0508Z" fill="white"/>
</svg>
